<?xml version="1.0" encoding="utf-8"?>
<!-- Generator: Adobe Illustrator 21.1.0, SVG Export Plug-In . SVG Version: 6.00 Build 0)  -->
<svg version="1.1" id="Layer_2" xmlns="http://www.w3.org/2000/svg" xmlns:xlink="http://www.w3.org/1999/xlink" x="0px" y="0px" width="512" height="512"
	 viewBox="0 0 512 512" style="enable-background:new 0 0 512 512;" xml:space="preserve">
<style type="text/css">
	.st0{fill:#010101;}
	.st1{fill:#88CE02;}
	.st2{fill:#F0EFEF;}
	.st3{fill:#0A1825;}
	.st4{opacity:0.3;fill:#010101;enable-background:new    ;}
	.st5{fill:#010101;fill-opacity:0;}
	.st6{opacity:0.4;fill:#010101;enable-background:new    ;}
	.st7{fill:#8AC640;stroke:#010101;stroke-width:1.586;stroke-linejoin:round;stroke-miterlimit:10;}
</style>
<g>
	<path class="st0" d="M116,223.7c-13.5,6.4-49.4,35-56.3,43.5c-7.2,8.5-9.3-4.8-1.9-26.8c5.8-17.8,20.7-41.9,45.6-62.6
		c14.6-11.9,46.7-29.2,66.3-39.3c4-2.1,55.5-23.9,101.4-34.8c4-1.1-4.8,6.6-6.1,10.9c-6.9,20.2-144.6,106.7-144.6,106.7L116,223.7z"
		/>
	<path class="st0" d="M310,467c2.4,14.3,0.3,15.4-14.6,17.3c-14.9,1.9-25.7-3.7-29.7-7.4c-4-3.7-4.8-11.9-0.8-19.4
		c2.4-4.8,4.8-6.4,6.1-12.2c1.3-5.6,2.4-6.9,3.4-9c1.1-1.9,1.3-3.7,1.6-16.7c0.3-13,0-37.4,1.3-47.8c1.3-10.6,47.2,4.8,47.2,4.8
		s-10.9,27.1-13.8,33.7c-2.9,6.6-2.7,19.4-2.7,22c0,2.7-1.1,8-1.9,8.2c-0.8,0.3,2.7,7.2,1.1,11.1C306.3,455.4,309.8,464.9,310,467z"
		/>
	<path class="st0" d="M327.5,61.3c-1.6-10.1,0-30,2.1-33.2c6.6-9,41.7-10.1,49.1,0.5c3.2,4.8,2.9,15.9,2.4,23.1
		c-0.5,7.2-2.4,22.6-2.7,27.6c-0.3,3.7-38.7,9.6-47.2-0.5C328.9,76.1,327.5,61.3,327.5,61.3z"/>
	<path class="st0" d="M405.6,441.3c16.2,11.7,28.7,13.8,36.9,18c8.2,4.2,6.1,12.5-7.7,14.9c-11.1,2.1-28.7-2.1-40.3-2.1
		s-37.7,1.3-44.6-3.4c-8-5.6-4.5-15.9-4.5-15.9c2.1-5.8,7.4-18.8,5.8-29.5s-3.7-16.5-7.7-26.3c-4-9.8-6.9-34-3.2-35.3
		c3.7-1.3,2.7,0,7.4,1.1c4.8,1.1,10.1,2.7,20.4,2.7c10.4,0,21.8-1.6,25.7-2.4c4-0.8,7.2-1.6,5.8,6.6c-1.3,8.2-5.3,23.6-5.6,35.6
		c-0.3,11.9-0.3,25.7,0.5,28.1C395.5,435.7,401.3,438.4,405.6,441.3z"/>
	<path class="st1" d="M348.8,87.8c-29.2,25.2-85.7,32.1-169.6,64.5c-21.5,8.2-78.8,32.9-92.6,58.6c46.4-26.8,63.7,10.1,67.4,48
		c3.4,35.6,21.2,54.1,66.9,53.1c47-1.1,61.3,26.3,74.3,58.4c25.2-122.9,65.5-146.8,91.6-167.7C441.9,157.9,374,78.8,348.8,87.8z"/>
	<path class="st1" d="M348.8,87.8c-70.1,24.4-139.3,30.5-220.8,80.7c-19.4,11.9-60.2,39-68.2,90.8c29.7-32.9,98.5-74.3,182.6-100.6
		c42.5-13.3,73.5-22,111.2-36.6C350.9,105.1,350.9,98.4,348.8,87.8z"/>
	<path class="st0" d="M438.2,233.2c0,0-5,17.3-15.1,22.8c0,0-7.4,2.7-22.3-5.6c-4.2-2.4-7.4-10.6-7.2-13.3c0.3-6.4,4.2-9.3,4.2-9.3
		s4.2-7.2,9.3-6.9c5,0.3,13.5,1.1,16.2-1.3C425.7,217,438.7,224.5,438.2,233.2z"/>
	<path class="st0" d="M329.9,66.3c0,0-1.1,13.5-2.9,22c-0.3,1.6-8.2,2.4-14.1,4.8c11.1,31.8,78.3,31.6,87,15.9
		c-4.2-2.9-12.7-7.4-16.7-9c-4-1.6-3.7-1.3-4-8.8c-0.3-7.4-0.8-21.2-1.3-24.9C377.4,62.6,336.3,62.6,329.9,66.3z"/>
	<path class="st2" d="M332.6,66.3c0,0,0,7.7-0.8,15.1c-0.3,3.5-0.5,5.6-1.1,8.2c-0.3,1.6,9,8,11.7,22c12.7,28.4,42.2,14.3,54.4,0.8
		c-4.2-2.9-11.1-6.9-19.1-10.1c-4-1.6-2.1-5-2.4-12.5c-0.3-7.4-1.3-18.3-1.9-22.3C372.9,63.7,338.9,62.6,332.6,66.3z"/>
	<path class="st0" d="M329.9,66.3c0,0-0.3,4.8-1.1,10.4c3.4,3.4,8,8.2,11.4,11.1c2.4,2.1,8.2,1.9,13.5,1.9c4.8,0,9,0.5,10.9-0.5
		c4.2-2.1,10.4-7.4,13.8-11.4c-0.3-4.8-0.5-9.3-0.8-11.4C377.4,62.6,336.3,62.6,329.9,66.3z"/>
	<path class="st0" d="M354.1,86.5c-3.2,0-6.9-0.3-9.8-0.8c-1.3-0.3-2.7-1.1-3.7-1.6c-1.9-1.3-3.7-2.9-5.8-4.5
		c-4.2-3.2-4.5-5-4.5-5.8C332,57,329.7,43,329.7,43s-1.9-7.2,8.2-9c10.1-1.9,16.2-2.1,16.2-2.1s6.4,0,16.2,2.1c10.1,1.9,8.2,9,8.2,9
		S376.1,57,378,73.7c0,0.8-0.3,2.7-4.5,5.8c-3.7,2.7-6.6,5.6-9.6,6.1C361,86.2,357.3,86.5,354.1,86.5z"/>
	<path class="st0" d="M354.1,24.9c-17.5,0-21,4.8-26,10.1c-1.1,1.3-0.3,9.3,1.6,26.3h2.4c0,0-1.6-4.8-1.3-10.4s1.3-5.3,0.5-6.6
		c-1.1-1.6-3.2-4.2,1.6-6.9c4.8-2.7,12.2,2.1,21.2,2.4c9-0.3,16.7-5,21.5-2.4c4.8,2.7,2.7,5.3,1.6,6.9c-1.1,1.6,0.3,1.1,0.5,6.6
		c0.3,5.6-1.3,10.4-1.3,10.4h2.4c1.6-17,2.7-24.4,1.9-25.7C376.1,29.7,371.6,25.2,354.1,24.9z"/>
	<path class="st0" d="M438.2,234c0,0-5,16.2-14.9,21.8c-2.1-1.1-1.9-2.7-3.7-5c-0.5-0.8-2.4-1.3-3.2-2.1c-0.8-0.8-0.5-2.1-1.9-3.2
		c-1.1-1.1-1.9-0.3-2.9-1.1c-1.1-1.1-1.3-2.4-2.1-3.2c-0.5-0.5-2.7-0.8-3.2-1.3c-1.3-1.3-13-3.7-12.5-6.4c1.1-4,3.2-6.9,3.2-6.9
		s5-7.4,10.1-7.2c5,0.3,9.8,1.3,12.5-1.1C422.5,215.7,439,225.5,438.2,234z"/>
	<path class="st0" d="M403.7,116.7c0,0,16.7-4,28.1,6.9c11.4,11.1,10.6,24.9,7.2,33.4c2.9,3.5,8.2,13,4.2,24.4
		c17.5,14.9,9.8,37.7-5.8,52.8c0,0-3.7-13.8-18.6-14.6c0.5-5.3-13.8-9.6-7.2-23.4c-10.1-2.4-9.8-9.3-11.4-17.8
		C398.9,170.1,403.7,116.7,403.7,116.7z"/>
	<path class="st2" d="M397.6,124.2c0,0,19.4-9.8,30.8,1.3c11.4,11.1,8.2,23.4,4.8,31.8c2.9,3.4,9.8,13.3,5.6,24.9
		c-0.8,2.7-6.6,2.7-10.9,9.6c10.6-6.1,17.3-4.5,19.6,3.2c3.7,11.9-4.5,26.3-11.7,34.2c0-0.3-0.3-0.5-0.3-0.8
		c-1.1,4-2.4,11.7-10.3,20.2c-4,4.2-7.2,3.7-11.7,2.7c-5.3-1.3-7.2-3.7-14.6-7.7c-4.2-2.4-1.9-5.3-1.9-7.7c0-0.5,0.5-1.3,1.3-2.4
		c0.5-1.3,2.1-3.4,4.5-5.8c0,0,3.5-4.8,8.5-4.5c5,0.3,10.3-0.8,11.7-2.1l0,0c0-9.3-10.6-9.6-6.9-25.5c0.3-0.8,1.6-2.1,5.8-2.7
		c-6.4-1.3-9.3-1.6-13.8-5.8c-3.2-2.9-5.6-6.6-6.4-11.4C400.3,167.4,397.6,124.2,397.6,124.2z"/>
	<path class="st0" d="M341.6,107.4c-1.6-2.1-9.8-12.7-25.5-17c-4.5-1.3-7.4,2.4-11.9,5c-1.3-0.8-7.2-3.5-10.4-1.6
		c-3.2,1.9-5.3,3.7-8.5,5c-1.6-0.8-5.8-0.8-9.3,0.5c-3.5,1.1-8.8,3.5-13.8,10.4c-3.2,11.4,56.3,2.9,56.3,2.9L341.6,107.4z"/>
	<path class="st1" d="M342.1,107.4c-8.5-2.9-7.2-12.7-26-14.3c-3.7-0.3-6.1,2.7-8.8,4.5c1.3,1.3,2.7,3.5,3.5,5.6
		c-2.4-2.7-6.6-6.1-10.9-6.9c-4-0.8-6.6,2.1-10.9,4.2c0.8,0.8,1.6,2.1,2.7,3.7c-3.7-2.4-6.4-3.2-11.4-1.3c-3.5,1.1-10.1,4-15.1,11.1
		c-3.2,11.4,53.6-1.3,53.6-1.3L342.1,107.4z"/>
	<path class="st0" d="M392,111.7c0,0,0-2.9-0.3-5.6c0-0.5-2.1-1.9-2.1-2.4l-0.5-0.5c0,0,4.2-2.4,7.4-1.1c3.4,1.1,5.3,5.6,5.3,5.6
		c6.1-2.1,6.6,0.3,9.6,3.5c6.4-1.3,7.2,1.1,11.1,6.9c0,0-4.8-0.8-14.1,0.8C399.5,120.2,392,111.4,392,111.7z"/>
	<path class="st1" d="M391,110.4c0,0,1.6-1.3,1.1-1.6c2.9-1.6,6.9-3.4,8.8,1.6c6.1-2.1,6.9,0.8,9.8,4c7.4-3.5,8,0.8,8.5,2.7
		c-2.4,0-5.8,0.3-10.6,0.8C399.5,119.1,390.7,110.1,391,110.4z"/>
	<path class="st0" d="M300.7,103.7c0,0,15.1,5.3,27.9,4.5c12.7-1.1,34.5-2.1,46.2,4.8c0,0,11.9-4.2,23.1-1.3
		c11.1,2.9,31.6,22,25.5,42.2c-0.5,1.3-4,3.5-8,4.8c0,0,2.1,9-1.6,16.5c-3.7,7.2-11.9,21-12.2,40.1l0,0c-0.3,3.2-0.8,9.8-1.3,13
		c-20.7-0.8-52.5-8.5-83.9-8c0.3-3.4,0.5-5.6,0.8-9h0.8c-1.6-8.8-2.1-13.3-3.7-19.9c-10.1-6.4-20.7-13.8-29.7-27.9
		C275.8,149.4,300.7,103.7,300.7,103.7z"/>
	<path class="st0" d="M403.2,247c0,0,16.5,58.9-2.9,83.6c0,0,2.9,11.4-3.7,23.6c-1.1,5.3-2.4,10.1-3.2,15.4
		c-3.5,22-9.3,31.3-10.9,66.6l-15.9-0.3c0,0-1.9-25.5-7.4-39c-3.2-7.7-15.7-18-15.1-28.4c0.5-8,2.1-14.6,15.7-25.2
		c1.1-15.4-14.3-30-11.9-87.3L403.2,247z"/>
	<path class="st2" d="M398.4,244.6c4.2,27.1,14.1,67.1-3.7,86.8c0.8,3.7,1.3,9,0.3,15.1c-0.5,3.2-1.6,6.6-2.9,10.3
		c-2.7,6.4-3.7,15.7-4.5,21.2c-3.5,22-3.5,23.1-5,58.4l-15.9-0.3c0,0-1.9-25.5-7.4-39c-3.2-7.7-9.8-14.3-10.3-24.7
		c-0.5-8,5-23.9,18.3-23.4c-0.8-32.1-15.7-25.7-19.6-92.6L398.4,244.6z"/>
	<path class="st2" d="M300.7,103.7c0,0,5.8,1.9,12.2,2.4c6.4,0.5,13.3,0,19.4-0.3c12.7-1.1,30.8-2.4,42.7,4.5c0,0,6.6-2.1,13.8-1.6
		c3.2,0.3,6.4,2.9,10.1,4c11.7,2.9,22.8,22.3,17.8,39.8c-0.5,1.3-4.2,0-8.5,1.3c0.8,3.7,1.3,12.2-2.9,21.2c-4.5,9-10.3,20.7-9.3,43
		c-27.9-1.3-40.3-3.2-67.9-4.5c-2.4-9.8-4-19.6-4.2-24.7c3.7-1.9,5.8-3.4,8.8-6.6c-8,1.3-11.1,0.8-15.9-1.9
		c-4.8-2.7-13.3-11.1-17.5-16.7c-0.5-0.5-3.4,8.2-10.1,8.5c-2.4-3.5,7.7-13.3,5.8-17C288.3,141.7,300.7,103.7,300.7,103.7z"/>
	<path class="st0" d="M400.5,222.6c0,0,0.5,9.6,0.5,11.9c0,2.7,2.1,10.6,2.4,14.3c-2.9,5-15.7,16.5-38.7,20.7
		c-22.8,4.8-53.1-31-53.1-31c0.8-3.5,3.5-13.5,5.3-18.8c0.3-0.5,0.8-1.9,0.8-2.4C320.1,213.9,400.5,222.6,400.5,222.6z"/>
	<path class="st2" d="M394.7,223.4c0,6.6,1.1,11.4,1.9,15.7c1.3,7.7,3.4,12.7,3.4,17.8c0,15.4-20.2,12.7-37.2,13.3
		c-22.8,4.8-42.2-31-42.2-31c1.6-6.1,2.7-13,5-18.8l0,0c0.3-3.2,0.8-7.2,1.1-9c32.4,0,55.2,1.9,68.5,3.2
		C395.7,217.3,395.2,222.4,394.7,223.4L394.7,223.4z"/>
	<path class="st0" d="M369.2,257.6c0,0-14.1-31.3-56.3-22c-10.1,28.4-23.6,61-14.9,96.3c-8.8,11.9-18.8,18.6-18.8,40.6
		c0,22,1.1,25.7,1.1,25.7l31,1.6c0,0,10.1-13,14.1-27.1c1.1-4,2.1-11.1,1.3-19.4c1.1-1.6,5.6-5.3,6.1-12.5c0,0,15.1-8,23.9-27.3
		C365,296.1,362.8,281,369.2,257.6z"/>
	<path class="st2" d="M369.2,257.6c-0.8-2.9-11.4-31.6-50.7-23.1c-23.1,61.6-14.6,87-11.1,98.2c-15.7,19.9-22.8,24.1-19.6,64.5h20.7
		c9.6-15.1,11.7-20.7,12.2-40.6c0-0.8-2.9,1.6-5,4.2c1.6-8.2,6.1-9.8,9.6-14.9c1.6-2.1,2.9-5.3,2.9-9.6
		c18.6-12.5,25.5-28.1,29.5-44.3C360.7,281,364.4,262.7,369.2,257.6z"/>
	<path class="st0" d="M303.7,214.9c0,0,7.2,0.3,13.5,2.4c6.1,2.1,6.1,3.4,8.5,6.1c2.4,2.7,8.2,6.6,7.2,10.6
		c-0.5,2.1-1.9,2.7-3.7,4.5c-0.8,0.8-6.6,7.2-8,8c-0.8,0.5-1.9,1.3-2.7,1.9c-0.8,0.5-3.2,2.1-4,2.7c-2.7,1.3-4.5,2.1-7.4,1.9
		c0,0-6.6-0.3-10.9-4.8c0,0-0.5-2.1,0.5-3.2c0,0-5.6-4.8-7.2-8c-1.6-3.2-1.6-7.7-0.5-10.1C289.6,224.5,299.9,217.8,303.7,214.9z"/>
	<path class="st0" d="M310.3,473.1l-0.8,6.6c0,0-2.4,2.9-20.2,2.7c-18-0.3-22.8-5.8-24.4-8.8l-1.1-6.9c0,0,3.5-5,4.2-5
		c5.8,0.5,25.7,8.5,39.5,10.6C309,472.3,309.2,472.9,310.3,473.1z"/>
	<path class="st0" d="M348.8,459.6c0,2.9-0.3,2.9-0.3,5.8c3.2,2.4,11.1,3.7,26.3,3.4c22-0.5,42.5,6.6,67.4,2.4l0.3-4.8l-2.4-0.3
		l-88.4-7.2L348.8,459.6z"/>
	<path class="st0" d="M368.1,468.9c2.1,0,4.2,0,6.6,0c14.3-0.5,27.9,2.7,42.5,3.5c7.7-0.3,17.3-2.1,16.5-7.7l-75.4-6.4
		C353.8,463.3,357.3,467.6,368.1,468.9z"/>
	<path class="st0" d="M281.6,357.2c2.4,1.6,18.6,11.1,44.8,9.8c-0.5,5-0.3,14.9-11.9,32.1c-5.8,8.5-10.9,23.4-11.9,42.2
		c0.3,4.2,2.7,8-0.5,13.5c1.1,3.4,5.3,10.3,7.4,14.6c2.1,4.2,3.2,9-10.9,9.3c-14.3,0.3-37.4-1.3-34.2-12.5
		c1.6-5.8,6.1-11.9,6.6-14.3c0.5-2.4,0.5-9.6,5-14.3c4-13.3,2.7-26,1.9-37.9C276.6,387.2,276.3,367.3,281.6,357.2z"/>
	<path class="st0" d="M306.3,140.9c18.8-25.2,2.9-45.4-27.3-39.3c-12.2,2.4-24.4,10.9-25.2,26.3c-4,0.5-13,1.1-17.5,17.5
		c-3.4,12.7-5.3,15.1-11.4,21.5c-4,4.5,0.3,13.8,3.2,20.4c9.8,22.8,40.1,24.9,60.5,42.2c6.9-1.9,14.1-9.6,16.2-14.6
		c-17.3-20.4-13.5-28.4-20.4-39C291.7,173.3,308.7,162.9,306.3,140.9z"/>
	<path class="st2" d="M302.6,139.3c1.1-1.6,2.9-5,3.7-6.4c0.3-0.3,3.2,4.8,3.5,4.5c7.2-11.7,9-28.7,0.8-30.3
		c-1.9-0.3-5.3-1.1-8.2-2.1c-5.3-1.9-10.1-1.9-18.6-0.3c-11.7,2.1-23.4,10.6-23.4,22.8c0,0.8,8.2,3.2,10.6,13
		c-4-5.6-10.9-11.7-19.1-6.4c-8.8,5.6-4.2,18.3-15.9,31.6c-4,4.5-3.5,9.8,0.8,20.4c6.9,16.7,39.5,25.7,57.3,41.7
		c4.2-1.9,7.2-6.1,9.3-9.3c-11.9-12.5-16.7-24.2-20.2-32.6c-4.2-9.8-9-15.4-18.3-22.8c4.8,1.9,8.5,3.7,10.6,5.3
		c2.4,1.6,5.8,1.9,9,0.8C296,165.3,302.1,149.4,302.6,139.3z"/>
	<path class="st0" d="M418,143.5c-0.8,10.1-8.2,5-12.2,3.2c-8-3.5-15.9-5.8-25.2-5.8c-9.3,0-21.2,0.8-31.6,3.5
		c-14.3,4-18.6,3.7-24.9,0.5c-6.4-3.5-17.5-11.9-17.5-11.9s-0.3,2.7,2.4,6.1c3.4,4.2,11.1,9.6,21.5,13c5,1.6,9,0.5,13.5-0.5
		c23.6-5.8,48.6-6.9,69.5,5.8c1.1,0.5,4.8-1.1,6.4-3.5C422,150.4,418,143.5,418,143.5z"/>
	<path class="st3" d="M297.3,244.6c2.1,1.3,4.8,2.1,7.7,4.5c0,0-2.4,0-3.4-1.1C300.2,247.3,297.5,244.9,297.3,244.6L297.3,244.6z"/>
	<path class="st2" d="M374,34.2c-0.8-2.4-6.6-6.6-20.2-6.6c-14.6,0-18.8,4.5-19.1,6.9c0,0.8-1.1,9.3-1.3,12.7c0,0,0,4.2,0.3,10.6
		c0.3,4.2,1.3,6.6,1.9,12.2c0.5,5.8,2.1,9.6,5,14.3c1.3,0.8,2.4,1.6,3.7,1.9c5.3,1.1,14.6,1.3,19.6,0c2.9-0.8,6.6-5.8,7.4-10.4
		c1.1-5.6,2.1-9.6,2.4-13c0.5-3.4,0.8-11.1,1.1-13.3C375.6,43.8,374.2,34.7,374,34.2z"/>
	<path class="st0" d="M346.1,362.2c0,0,14.1,6.1,48.8,0.8c0,0-9.8,49.4-5.3,74c0,0,4.5,6.4,37.9,18.6c0,0,14.9,3.7,14.3,11.1
		c0,0,0.5,1.6-17.5,1.1s-35-3.7-47-3.7c-11.9,0-24.7,0.5-26.8-2.9c-2.4-3.2,0.5-11.4,4-16.2c3.7-5,2.7-8.8,2.4-17.8
		C356.2,403.6,338.2,379.2,346.1,362.2z"/>
	<path class="st1" d="M343.2,366.7c-1.9,2.7,0.3,12.7,2.9,22.6c2.7,9.8,8.5,15.7,9.8,31.8c1.3,15.9,1.6,18-2.9,27.3
		c-4.5,9.3-5.8,17.8,9.8,18c15.7,0.3,24.2-0.3,40.1,2.1c15.9,2.4,21.5,3.2,30.3,1.9c8.8-1.3,10.6-4.2,6.9-6.9
		c-3.7-2.7-19.1-5.6-25.7-10.9c-6.4-4.8-24.4-12.7-24.7-14.9c-0.8-7.2-1.1-33.2,0.3-41.7c1.3-8.5,3.2-20.7,3.7-23.9
		c0.5-3.2,3.2-6.4-1.3-5.3c-4.5,1.1-21.5,3.5-34.2,2.7C345.3,368.8,344,365.9,343.2,366.7z"/>
	<path class="st4" d="M352.2,448.7c4.5,2.1,11.1,3.7,16.2,3.7c0,0-1.9,8.8,1.1,14.1c2.9,5.3-21.2,2.1-21.2,2.1l-1.1-18.8
		L352.2,448.7z"/>
	<path class="st4" d="M422.5,471.5c4.2-1.3,7.2-6.1,3.7-10.6c-3.7-4.5-6.9-5.3-2.1-5.6c4.8-0.3,22.3,10.3,22.3,10.3l-9,8.2
		L422.5,471.5z"/>
	<path class="st4" d="M342.4,377.1c6.1,2.1,15.4,2.7,23.4,2.4c8-0.3,19.9-1.3,27.6-4c7.7-2.7,4.5,2.9,4.5,2.9l-4.2,4
		c0,0-10.1,4-26.5,3.7c-19.4-0.3-25.2-2.4-25.2-2.4L342.4,377.1z"/>
	<path class="st4" d="M342.9,390.3c6.1,2.1,15.4,2.7,23.4,2.4c8-0.3,18.6-0.3,26.3-3.2c3.2-1.1,1.3,3.5,1.3,3.5l-1.3,2.4
		c0,0-10.4,3.7-26.5,3.4c-19.4-0.3-22.8-1.9-22.8-1.9L342.9,390.3z"/>
	<path class="st5" d="M346.1,362.2c0,0,23.1,8.2,49.1,2.7c0,0-10.1,47.5-5.6,71.9c0,0,4.5,6.4,37.9,18.6c0,0,14.9,3.7,14.3,11.1
		c0,0,0.5,1.6-17.5,1.1c-18-0.5-35-3.7-47-3.7c-11.9,0-24.7,0.5-26.8-2.9c-2.4-3.2,0.5-11.4,4-16.2c3.7-5,2.7-8.8,2.4-17.8
		C356.2,403.6,338.2,379.2,346.1,362.2z"/>
	<path class="st5" d="M346.1,362.2c0,0,23.1,8,49.1,2.4c0,0-10.1,47.8-5.6,72.2c0,0,4.5,6.4,37.9,18.6c0,0,14.9,3.7,14.3,11.1
		c0,0,0.5,1.6-17.5,1.1c-18-0.5-35.3-5.6-47-3.7c-12.5,2.1-24.7,1.3-26.8-2.9c-1.9-3.4,0.5-11.4,4-16.2c3.7-5,2.7-8.8,2.4-17.8
		C356.2,403.6,338.2,379.2,346.1,362.2z"/>
	<path class="st0" d="M325.4,204.3c0,1.9,20.7,12.2,32.1,14.3c11.4,2.1,35.3,0,39-0.8l-0.5,3.7c0,0-28.4,4.2-50.2-1.6
		c-21.8-5.8-19.4-7.2-19.4-7.2L325.4,204.3z"/>
	<g>
		<path class="st2" d="M281.1,430.7c3.2,1.6,14.6,4.5,22,2.9c1.1-0.3,0-18.3,2.9-26.5c4.2-11.4,11.1-20.7,14.3-40.9
			c-11.1-1.1-23.9-4-30.5-6.1C281.4,386.1,284.3,408.4,281.1,430.7z"/>
		<path class="st2" d="M298.9,447.4c1.9,0.5,3.2,2.7,3.7,1.3c1.1-2.4-1.9-6.9-2.1-10.1c0-0.3,0,0,0-0.3c-2.4-2.1-18.6-2.4-17.5-1.3
			c-1.9,3.5-4.8,2.9-5.8,9.8c-0.5,3.4,3.7,0.5,7.7,0.3c-7.2,4.8-15.4,10.9-16.7,16.2c-1.6,7.4,1.1,9.6,9,13.5
			c6.9,1.6,15.1,1.9,21.5,1.6c7.2-1.3,8.5-4.8,6.4-9.6C301.8,461.7,299.7,452.4,298.9,447.4z"/>
	</g>
	<path class="st0" d="M301.8,102.7c8.8,5,21,3.7,25.5,3.5c1.1,0,11.7-1.9,12.2-1.6c1.1,0.3,1.1,1.1,1.1,1.1s-4,2.1-13,2.7
		c-8.5,0.5-18.6,0-24.1-2.7C296.8,102.7,301.8,102.7,301.8,102.7z"/>
	<path class="st0" d="M392,107.7c1.6,1.1,11.9,5,16.5,9.8c4,4.2,1.9,4,1.1,2.9c-1.1-1.3-9.3-6.9-12.5-8.2c-3.2-1.3-7.2-3.7-7.2-4.2
		S392,107.7,392,107.7z"/>
	<path class="st2" d="M300.5,217.8c7.7-0.5,15.7,1.3,20.7,6.6c2.7,2.7,6.9,5.6,6.4,8.2c0,0.8-1.6,2.9-2.9,4.5
		c-0.8,1.1-3.2,3.4-4,4.2c-1.1,0.8-4.8,3.7-5.6,4.2c-0.8,0.5-1.9,1.9-2.7,2.1c-2.7,1.3-5.6,0.3-8.2-1.1c-2.7-1.3,0.5-1.6-2.4-3.7
		c-7.2-5-11.1-8.5-8.2-18.3C293.8,222.9,296.8,220.8,300.5,217.8z"/>
	<path class="st6" d="M232.8,157.1c-23.9,9.6-84.7,39.8-101.9,49.1l0,0c14.3,9,21,30.8,23.1,52.8c0.3,2.1,0.5,4,0.8,6.1
		c0.3,1.9,0.5,3.2,0.8,4c0,0.3,0,0.8,0.3,1.1c15.7-42.7,71.7-87.8,73.8-91.3c1.1-1.6-1.3-8.5,2.4-15.1
		C236.8,155.2,246.1,151.5,232.8,157.1z"/>
	<path class="st6" d="M289.6,357.4c12.2-24.4,12.5-47.8,12.2-75.1c0-11.4,8.2-27.6,4-23.1c-15.9,17.8-56,51.2-84.9,53.1
		C261.5,311,277.4,331.4,289.6,357.4z"/>
	<path class="st0" d="M107.5,228.7c15.1-10.9,93.4-52.5,112.3-58.4c18.8-6.1,13-13.3,13-13.3s-76.4,32.9-122.1,61.3"/>
	<path class="st6" d="M330.5,152c-6.1-2.4-10.9,4.8-9.3,11.7c1.6,6.9,15.9,14.6,15.1,39.8c-0.5,20.7-5,29.2-5,29.2L321.2,220
		c0,0-1.6-28.7-5-32.9c-3.4-4.2-14.3-11.9-18.6-15.9c-4.2-4,4.8-9.3,4.2-16.7c-0.5-7.2,4.5-21.5,4.5-21.5L330.5,152z"/>
	<path class="st6" d="M367.3,265.1c-0.5,19.9,4,49.4,5.8,63.4c1.9,14.1,4.2,15.1,0,21.5c-4.2,6.1-9.8,16.2-9.8,16.2l-18.3-1.6
		c0,0,14.6-18.6,15.4-22c0.8-3.4-7.4-29.7-7.4-29.7L367.3,265.1z"/>
	<path class="st6" d="M332,79.3c3.7,8.2,8.2,11.9,15.4,14.3c4.2,1.6,21,3.7,27.6-3.7c2.9-3.5,1.1-12.7,1.1-12.7L361,89.4l-20.4-3.7
		l-2.4-6.1L332,79.3z"/>
	<path class="st7" d="M333.6,97.6c6.9,4.5,24.2,8.8,28.9,9.6c4.8,1.1,12.5-5,16.2-6.6c4-1.9,10.9-2.9,18.8,4.2
		c0.8,0.8-1.9,4.2-1.9,4.2c-0.3-0.3-1.9-0.3-4-1.3c-2.1-1.1-4-1.9-7.2-1.6c-13.3,1.6-15.4,6.1-27.1,3.4c-11.7-2.7-14.6-4.8-26-4.2"
		/>
	<path class="st1" d="M331.3,98.4c8.8,3.7,25.7,7.7,30.5,8.8c4.8,1.1,12.5-3.7,16.2-6.1c6.6-4.2,15.1-0.8,19.1,3.7
		c2.7,2.9,3.7,4.8,3.7,5.6c0,1.1-3.2,0-3.2,0c-1.9-0.8-4-1.1-5.6-2.1c-2.1-1.1-4.2-2.7-7.4-2.4c-13.3,1.6-15.9,6.1-27.3,3.5
		c-11.4-2.7-14.3-5-26.5-4.2"/>
	<path class="st0" d="M290.1,346.3c-0.5-0.5,0.5-1.1,0-1.1c-3.4,0-8.2-2.7-10.9-6.4c-11.4-16.5-28.1-27.3-58.4-26.5
		c-45.4,1.1-63.4-17.5-66.9-53.1c-1.9-19.4-7.2-38.2-18-48.8l-6.4,4c12.2,10.6,16.2,27.9,18.8,51.5c4.2,35.6,32.9,52,66.3,52.5
		c34.8,0.5,47.2,7.7,60.2,25.2c4.2,5.6,9,7.4,12.7,8.2L290.1,346.3z"/>
	<path class="st6" d="M413.3,175.6c0.8,4,2.9,11.7,7.2,15.4c1.9,1.9,2.1,2.4,0.5,2.4c-1.6,0-13.3-0.5-13.3-0.5l-3.2-5.6L413.3,175.6
		z"/>
</g>
</svg>
